<svg width="62" height="62" viewBox="0 0 62 62" fill="none" xmlns="http://www.w3.org/2000/svg">
<g clip-path="url(#clip0_0_35)">
<circle cx="31" cy="31" r="28" fill="white"/>
<path d="M31 0C13.8792 0 0 13.8792 0 31C0 48.1208 13.8792 62 31 62C48.1208 62 62 48.1208 62 31C62 13.8792 48.1208 0 31 0ZM19.8594 12.3137C20.4981 12.2761 21.0754 12.6578 21.5131 13.3354L25.7513 21.373C26.1976 22.3254 25.944 23.3452 25.2783 24.0257L23.3371 25.967C23.2172 26.1312 23.1384 26.3161 23.1365 26.5195C23.881 29.4012 26.1392 32.0593 28.1317 33.8873C30.124 35.7153 32.2655 38.1901 35.0453 38.7765C35.3889 38.8723 35.8098 38.9067 36.0557 38.6781L38.311 36.3811C39.0896 35.791 40.2158 35.5051 41.047 35.9876H41.0848L48.7326 40.5021C49.8552 41.2058 49.9715 42.5659 49.1678 43.3932L43.9003 48.6192C43.1224 49.4169 42.089 49.6851 41.0849 49.6863C36.6443 49.5532 32.4484 47.3737 29.0021 45.1339C23.3451 41.0185 18.156 35.9142 14.8983 29.7474C13.6489 27.1615 12.1812 23.8621 12.3213 20.9758C12.3338 19.89 12.6276 18.8262 13.3923 18.1263L18.6598 12.8587C19.0702 12.5096 19.4761 12.3363 19.8594 12.3137Z" fill="#3957FF"/>
</g>
<defs>
<clipPath id="clip0_0_35">
<rect width="62" height="62" fill="white"/>
</clipPath>
</defs>
</svg>
