<svg aria-hidden="true" style="position:absolute;width:0;height:0;overflow:hidden" xmlns="http://www.w3.org/2000/svg">
  <defs>
    <symbol id="icon-Ellipse-5-1" viewBox="0 0 32 32">
      <path d="M0 32V0h32v32z"/>
      <path d="M-2340.298 497.194v-898.866a9.075 9.075 0 0 1 9.075-9.075H409.792a9.075 9.075 0 0 1 9.075 9.075v898.866a9.075 9.075 0 0 1-9.075 9.075h-2741.015a9.075 9.075 0 0 1-9.075-9.075z"/>
      <path d="M-177.194 506.269v-917.015h423.642v917.015z"/>
      <path d="M-21.97 341.97v-587.94h195.821v587.94z"/>
      <path d="M-21.97 47.761V-99.343h195.821V47.761z"/>
      <path d="M16 0c8.837 0 16 7.163 16 16s-7.163 16-16 16S0 24.837 0 16 7.163 0 16 0z"/>
    </symbol>
    <symbol id="icon-map_plumber-1" viewBox="0 0 32 32">
      <path fill="#fff" style="fill:var(--color1, #fff)" d="M29.421 28.413c0-1.276-2.327-4.843-2.327-4.843s-2.364 3.567-2.364 4.843c0 1.274 1.051 2.307 2.347 2.307s2.346-1.033 2.346-2.307zM12.587 8.43H7.894V3.805h1.28V1.281H.641v2.524h1.28v7.149c0 1.859 1.528 3.365 3.413 3.365h7.253v1.262h2.56v-8.41h-2.56v1.261zm17.492 10.513v-7.149c0-1.858-1.528-3.365-3.41-3.365h-7.255V7.168h-2.56v8.412h2.56v-1.264h4.693v4.625h-1.28v2.524h8.532v-2.524h-1.281z"/>
    </symbol>
    <symbol id="icon-wrench" viewBox="0 0 32 32">
      <path d="M31.342 25.559 16.95 13.223A9 9 0 0 0 6.387.387l5.2 5.2a2.005 2.005 0 0 1 0 2.828l-3.172 3.172a2.005 2.005 0 0 1-2.828 0l-5.2-5.2A9 9 0 0 0 13.223 16.95l12.336 14.392a1.828 1.828 0 0 0 2.716.104l3.172-3.172c.778-.778.731-2-.104-2.716z"/>
    </symbol>
    <symbol id="icon-fire" viewBox="0 0 32 32">
      <path d="M10.031 32c-2.133-4.438-.997-6.981.642-9.376 1.795-2.624 2.258-5.221 2.258-5.221s1.411 1.834.847 4.703c2.493-2.775 2.963-7.196 2.587-8.889C22 17.155 24.408 25.681 21.163 32c17.262-9.767 4.294-24.38 2.036-26.027.753 1.646.895 4.433-.625 5.785C20.001 1.999 13.637-.001 13.637-.001c.753 5.033-2.728 10.536-6.084 14.648-.118-2.007-.243-3.392-1.298-5.312-.237 3.646-3.023 6.617-3.777 10.27-1.022 4.946.765 8.568 7.555 12.394z"/>
    </symbol>
    <symbol id="icon-stumbleupon" viewBox="0 0 32 32">
      <path d="M16 10c-1.1 0-2 .9-2 2v8c0 3.306-2.694 6-6 6s-6-2.694-6-6v-4h4v4c0 1.1.9 2 2 2s2-.9 2-2v-8c0-3.306 2.694-6 6-6s6 2.694 6 5.563v1.938l-2.563.75-1.438-.75v-1.938c0-.662-.9-1.563-2-1.563z"/>
      <path d="M30 20c0 3.306-2.694 6-6 6s-6-2.694-6-6.438v-3.875l1.438.75 2.563-.75v3.875c0 1.538.9 2.438 2 2.438s2-.9 2-2v-4h4v4z"/>
    </symbol>
  </defs>
</svg>
